<?xml version="1.0" standalone="no"?>
<!DOCTYPE svg PUBLIC "-//W3C//DTD SVG 20010904//EN"
 "http://www.w3.org/TR/2001/REC-SVG-20010904/DTD/svg10.dtd">
<svg version="1.0" xmlns="http://www.w3.org/2000/svg"
 width="309.000000pt" height="309.000000pt" viewBox="0 0 309.000000 309.000000"
 preserveAspectRatio="xMidYMid meet">
<metadata>
Created by potrace 1.11, written by Peter Selinger 2001-2013
</metadata>
<g transform="translate(0.000000,309.000000) scale(0.100000,-0.100000)"
fill="#000000" stroke="none">
<path d="M0 1545 l0 -1545 1545 0 1545 0 0 1545 0 1545 -1545 0 -1545 0 0
-1545z m1799 1085 c426 -105 746 -440 827 -867 22 -117 15 -344 -14 -453 -28
-104 -81 -240 -97 -246 -7 -3 -60 14 -117 39 -370 157 -817 250 -1329 276
-169 9 -586 5 -576 -6 2 -2 78 -10 168 -18 637 -56 1189 -220 1562 -464 59
-39 107 -77 107 -85 0 -17 -112 -115 -189 -164 -52 -33 -55 -34 -67 -16 -193
275 -581 511 -1037 628 -112 29 -367 72 -472 80 l-70 5 105 -24 c267 -64 591
-196 773 -316 97 -63 244 -202 302 -284 48 -66 117 -203 110 -216 -20 -31
-317 -40 -455 -13 -275 52 -531 218 -687 445 -89 130 -136 237 -183 424 -19
74 -25 293 -10 383 36 224 143 432 304 595 164 165 392 281 621 317 97 15 327
4 424 -20z"/>
<path d="M1373 2535 c-229 -41 -450 -173 -595 -354 -96 -120 -191 -313 -186
-378 2 -20 4 -20 28 -8 35 18 53 41 47 59 -3 8 -2 30 4 48 8 32 11 34 44 30
19 -2 35 -10 35 -17 0 -40 106 -125 156 -125 29 0 34 4 42 33 8 31 10 32 68
37 l59 5 3 97 c2 85 5 98 22 103 13 4 20 17 22 42 4 52 28 56 28 5 0 -34 4
-41 25 -46 35 -9 42 -35 38 -138 -3 -58 0 -88 7 -88 19 0 28 44 55 275 28 236
35 288 41 282 2 -2 13 -61 24 -133 11 -71 27 -171 36 -221 l16 -93 27 19 c46
33 204 173 268 239 99 100 103 107 103 173 0 32 4 61 10 64 5 3 23 -1 39 -10
35 -18 92 -20 108 -4 20 20 43 2 43 -34 0 -26 9 -42 43 -73 63 -60 115 -98
218 -159 134 -79 140 -75 45 37 -71 83 -200 185 -304 240 -176 93 -417 130
-619 93z m-719 -688 c-2 -7 -14 -19 -27 -26 -21 -13 -21 -12 2 13 27 29 33 32
25 13z"/>
<path d="M1864 2359 c-3 -6 -2 -15 4 -21 11 -11 52 6 52 22 0 14 -47 13 -56
-1z"/>
<path d="M1920 2315 c-8 -9 -8 -15 -2 -15 12 0 26 19 19 26 -2 2 -10 -2 -17
-11z"/>
<path d="M1835 2310 c3 -5 11 -10 16 -10 6 0 7 5 4 10 -3 6 -11 10 -16 10 -6
0 -7 -4 -4 -10z"/>
<path d="M1988 2279 c4 -39 8 -43 89 -96 84 -55 265 -146 317 -159 26 -6 27
-5 17 14 -6 12 -53 41 -104 66 -112 54 -195 107 -263 169 -29 26 -54 47 -56
47 -2 0 -2 -18 0 -41z"/>
<path d="M1675 2156 c-55 -54 -140 -130 -188 -169 -48 -38 -86 -72 -83 -74 9
-9 199 141 308 242 45 42 68 70 66 82 -2 14 -28 -6 -103 -81z"/>
<path d="M1846 2234 c-10 -9 -16 -26 -14 -38 3 -18 10 -21 53 -21 l50 0 0 35
c0 33 -2 35 -36 38 -24 2 -42 -3 -53 -14z"/>
<path d="M1990 2014 l0 -176 243 7 c133 4 244 9 247 12 2 2 -5 29 -16 60 l-20
56 -124 53 c-130 55 -220 101 -280 141 -19 13 -38 23 -42 23 -5 0 -8 -79 -8
-176z"/>
<path d="M1675 2078 c-49 -44 -129 -108 -177 -141 -85 -59 -88 -62 -88 -100 0
-34 2 -38 23 -35 18 2 23 10 25 45 3 35 7 44 27 49 42 10 60 1 66 -36 l6 -35
2 42 c3 103 141 96 141 -7 0 -39 1 -40 33 -40 l34 0 6 128 c9 165 9 212 0 212
-5 -1 -48 -37 -98 -82z"/>
<path d="M1847 2104 c-4 -4 -7 -27 -7 -51 l0 -44 48 3 47 3 0 45 0 45 -40 3
c-23 2 -44 0 -48 -4z"/>
<path d="M1837 1933 c-4 -3 -7 -28 -7 -55 l0 -49 47 3 c41 3 48 6 56 31 5 15
6 39 3 52 -6 22 -12 25 -50 25 -23 0 -46 -3 -49 -7z"/>
<path d="M754 1795 c-7 -40 0 -55 26 -55 58 0 66 34 15 67 l-34 22 -7 -34z"/>
<path d="M705 1811 c-3 -5 -1 -12 5 -16 5 -3 10 1 10 9 0 18 -6 21 -15 7z"/>
<path d="M613 1778 c-24 -16 -43 -37 -43 -47 0 -14 7 -16 48 -11 l47 5 3 43
c2 23 0 42 -5 41 -4 0 -27 -14 -50 -31z"/>
<path d="M2222 1779 c-123 -4 -225 -9 -227 -11 -7 -7 -8 -154 -1 -175 12 -36
26 -27 26 17 0 34 4 41 25 46 14 3 31 18 38 33 10 21 19 26 47 26 34 0 35 -1
38 -42 l3 -43 45 0 44 0 0 60 0 60 65 0 65 0 0 -30 c0 -22 5 -30 18 -30 36 0
47 -18 52 -87 5 -68 5 -68 35 -68 l30 0 -1 105 c-1 121 -11 151 -52 148 -15 0
-127 -4 -250 -9z"/>
<path d="M700 1744 c0 -17 22 -14 28 4 2 7 -3 12 -12 12 -9 0 -16 -7 -16 -16z"/>
<path d="M1700 1650 c0 -103 1 -110 20 -110 30 0 50 59 50 146 l0 74 -35 0
-35 0 0 -110z"/>
<path d="M1430 1725 c0 -16 6 -25 15 -25 9 0 15 9 15 25 0 16 -6 25 -15 25 -9
0 -15 -9 -15 -25z"/>
<path d="M1553 1685 c0 -33 2 -45 4 -27 2 18 2 45 0 60 -2 15 -4 0 -4 -33z"/>
<path d="M753 1694 c-7 -19 5 -31 37 -36 21 -2 26 -10 31 -43 5 -33 6 -29 8
28 l1 67 -35 0 c-23 0 -38 -6 -42 -16z"/>
<path d="M605 1691 c-36 -5 -40 -9 -43 -38 -3 -32 -2 -33 33 -33 25 0 38 5 42
18 4 9 12 20 19 25 13 7 8 38 -5 36 -3 -1 -24 -5 -46 -8z"/>
<path d="M1850 1600 c0 -5 14 -10 31 -10 17 0 28 4 24 10 -3 6 -17 10 -31 10
-13 0 -24 -4 -24 -10z"/>
</g>
</svg>
